<svg width="76" height="19" viewBox="0 0 76 19" fill="none" xmlns="http://www.w3.org/2000/svg">
<path d="M6.86719 0.644531C8.50781 0.644531 9.82812 1.01953 10.8281 1.76953C11.8359 2.51172 12.3398 3.51562 12.3398 4.78125C12.3398 5.65625 12.0977 6.4375 11.6133 7.125C11.1289 7.80469 10.3477 8.41406 9.26953 8.95312C10.5508 9.64062 11.4688 10.3594 12.0234 11.1094C12.5859 11.8516 12.8672 12.668 12.8672 13.5586C12.8672 14.9648 12.3164 16.0977 11.2148 16.957C10.1133 17.8086 8.66406 18.2344 6.86719 18.2344C4.99219 18.2344 3.51953 17.8359 2.44922 17.0391C1.37891 16.2422 0.84375 15.1133 0.84375 13.6523C0.84375 12.6758 1.10156 11.8086 1.61719 11.0508C2.14062 10.293 2.97656 9.625 4.125 9.04688C3.14844 8.42969 2.44531 7.76953 2.01562 7.06641C1.58594 6.36328 1.37109 5.59375 1.37109 4.75781C1.37109 3.53125 1.87891 2.53906 2.89453 1.78125C3.91016 1.02344 5.23438 0.644531 6.86719 0.644531ZM4.19531 13.4414C4.19531 14.1133 4.42969 14.6367 4.89844 15.0117C5.36719 15.3867 6.00781 15.5742 6.82031 15.5742C7.71875 15.5742 8.39062 15.3828 8.83594 15C9.28125 14.6094 9.50391 14.0977 9.50391 13.4648C9.50391 12.9414 9.28125 12.4531 8.83594 12C8.39844 11.5391 7.68359 11.0508 6.69141 10.5352C5.02734 11.3008 4.19531 12.2695 4.19531 13.4414ZM6.84375 3.29297C6.22656 3.29297 5.72656 3.45312 5.34375 3.77344C4.96875 4.08594 4.78125 4.50781 4.78125 5.03906C4.78125 5.50781 4.92969 5.92969 5.22656 6.30469C5.53125 6.67188 6.07812 7.05078 6.86719 7.44141C7.63281 7.08203 8.16797 6.71484 8.47266 6.33984C8.77734 5.96484 8.92969 5.53125 8.92969 5.03906C8.92969 4.5 8.73438 4.07422 8.34375 3.76172C7.95312 3.44922 7.45312 3.29297 6.84375 3.29297ZM16.3711 18L22.8047 3.9375H14.3555V0.890625H26.6484V3.16406L20.168 18H16.3711ZM29.5781 18V0.867188H33.2109V15H40.1602V18H29.5781ZM57.0938 0.867188V11.9531C57.0938 13.2188 56.8086 14.3281 56.2383 15.2812C55.6758 16.2344 54.8594 16.9648 53.7891 17.4727C52.7188 17.9805 51.4531 18.2344 49.9922 18.2344C47.7891 18.2344 46.0781 17.6719 44.8594 16.5469C43.6406 15.4141 43.0312 13.8672 43.0312 11.9062V0.867188H46.6523V11.3555C46.6523 12.6758 46.918 13.6445 47.4492 14.2617C47.9805 14.8789 48.8594 15.1875 50.0859 15.1875C51.2734 15.1875 52.1328 14.8789 52.6641 14.2617C53.2031 13.6367 53.4727 12.6602 53.4727 11.332V0.867188H57.0938ZM75.1406 18H70.9922L67.0078 11.5195L63.0234 18H59.1328L64.8164 9.16406L59.4961 0.867188H63.5039L67.1953 7.03125L70.8164 0.867188H74.7305L69.3516 9.36328L75.1406 18Z" fill="black"/>
</svg>
